<svg width="1432" height="823" viewBox="0 0 1432 823" fill="none" xmlns="http://www.w3.org/2000/svg">
<g style="mix-blend-mode:soft-light">
<g style="mix-blend-mode:lighten" opacity="0.5">
<path d="M162.889 381.328L164.584 395.138L175.244 397.46L164.564 399.685L162.744 413.479L161.049 399.669L150.389 397.348L161.069 395.123L162.889 381.328Z" fill="white"/>
<path d="M219.975 349.434L221.671 363.244L232.331 365.565L221.65 367.791L219.83 381.585L218.135 367.775L207.475 365.453L218.155 363.228L219.975 349.434Z" fill="white"/>
<path d="M213.811 413.709L215.507 427.519L226.166 429.841L215.486 432.066L213.666 445.86L211.971 432.05L201.311 429.729L211.991 427.503L213.811 413.709Z" fill="white"/>
<path d="M164.957 323.465L166.653 337.275L177.312 339.596L166.632 341.822L164.812 355.616L163.117 341.806L152.457 339.484L163.137 337.259L164.957 323.465Z" fill="white"/>
<path d="M232.438 291.617L234.133 305.427L244.793 307.748L234.113 309.974L232.293 323.768L230.597 309.958L219.937 307.636L230.618 305.411L232.438 291.617Z" fill="white"/>
<path d="M182.075 340.071L183.77 353.881L194.43 356.202L183.75 358.428L181.93 372.222L180.235 358.412L169.575 356.09L180.255 353.865L182.075 340.071Z" fill="white"/>
<path d="M182.075 340.071L183.77 353.881L194.43 356.202L183.75 358.428L181.93 372.222L180.235 358.412L169.575 356.09L180.255 353.865L182.075 340.071Z" fill="white"/>
</g>
<g style="mix-blend-mode:lighten" opacity="0.5">
<path d="M298.887 381.941L300.583 395.75L311.243 398.072L300.562 400.297L298.743 414.091L297.047 400.282L286.387 397.96L297.068 395.735L298.887 381.941Z" fill="white"/>
<path d="M355.974 350.046L357.669 363.856L368.329 366.177L357.649 368.403L355.829 382.197L354.134 368.387L343.474 366.065L354.154 363.84L355.974 350.046Z" fill="white"/>
<path d="M349.81 414.321L351.505 428.131L362.165 430.453L351.485 432.678L349.665 446.472L347.969 432.662L337.31 430.341L347.99 428.115L349.81 414.321Z" fill="white"/>
<path d="M300.956 324.077L302.651 337.887L313.311 340.208L302.631 342.434L300.811 356.228L299.115 342.418L288.456 340.096L299.136 337.871L300.956 324.077Z" fill="white"/>
<path d="M368.436 292.229L370.132 306.039L380.791 308.36L370.111 310.586L368.291 324.38L366.596 310.57L355.936 308.248L366.616 306.023L368.436 292.229Z" fill="white"/>
<path d="M318.073 340.683L319.769 354.493L330.429 356.814L319.748 359.04L317.929 372.834L316.233 359.024L305.573 356.702L316.254 354.477L318.073 340.683Z" fill="white"/>
<path d="M318.073 340.683L319.769 354.493L330.429 356.814L319.748 359.04L317.929 372.834L316.233 359.024L305.573 356.702L316.254 354.477L318.073 340.683Z" fill="white"/>
</g>
<g style="mix-blend-mode:lighten" opacity="0.5">
<path d="M58.9717 584.905L60.6672 598.715L71.3271 601.037L60.6467 603.262L58.827 617.056L57.1316 603.246L46.4716 600.925L57.1521 598.699L58.9717 584.905Z" fill="white"/>
<path d="M116.058 553.01L117.754 566.82L128.414 569.142L117.733 571.367L115.913 585.161L114.218 571.351L103.558 569.03L114.238 566.805L116.058 553.01Z" fill="white"/>
<path d="M109.894 617.286L111.59 631.096L122.249 633.417L111.569 635.643L109.749 649.437L108.054 635.627L97.394 633.305L108.074 631.08L109.894 617.286Z" fill="white"/>
<path d="M61.0401 527.042L62.7355 540.852L73.3955 543.173L62.7151 545.398L60.8954 559.193L59.2 545.383L48.54 543.061L59.2204 540.836L61.0401 527.042Z" fill="white"/>
<path d="M128.521 495.193L130.216 509.003L140.876 511.325L130.196 513.55L128.376 527.344L126.68 513.534L116.02 511.213L126.701 508.988L128.521 495.193Z" fill="white"/>
<path d="M78.1577 543.648L79.8532 557.458L90.5132 559.779L79.8327 562.004L78.0131 575.799L76.3176 561.989L65.6577 559.667L76.3381 557.442L78.1577 543.648Z" fill="white"/>
<path d="M78.1577 543.648L79.8532 557.458L90.5132 559.779L79.8327 562.004L78.0131 575.799L76.3176 561.989L65.6577 559.667L76.3381 557.442L78.1577 543.648Z" fill="white"/>
</g>
<g style="mix-blend-mode:lighten" opacity="0.5">
<path d="M253.268 519.491L254.963 533.301L265.623 535.622L254.943 537.848L253.123 551.642L251.427 537.832L240.768 535.511L251.448 533.285L253.268 519.491Z" fill="white"/>
<path d="M310.354 487.596L312.049 501.406L322.709 503.728L312.029 505.953L310.209 519.747L308.514 505.937L297.854 503.616L308.534 501.39L310.354 487.596Z" fill="white"/>
<path d="M304.19 551.872L305.885 565.682L316.545 568.003L305.865 570.229L304.045 584.023L302.35 570.213L291.69 567.891L302.37 565.666L304.19 551.872Z" fill="white"/>
<path d="M255.336 461.627L257.031 475.437L267.691 477.759L257.011 479.984L255.191 493.778L253.496 479.968L242.836 477.647L253.516 475.422L255.336 461.627Z" fill="white"/>
<path d="M322.816 429.779L324.512 443.589L335.172 445.911L324.491 448.136L322.672 461.93L320.976 448.12L310.316 445.799L320.997 443.573L322.816 429.779Z" fill="white"/>
<path d="M272.454 478.233L274.149 492.043L284.809 494.365L274.129 496.59L272.309 510.384L270.614 496.574L259.954 494.253L270.634 492.028L272.454 478.233Z" fill="white"/>
<path d="M272.454 478.233L274.149 492.043L284.809 494.365L274.129 496.59L272.309 510.384L270.614 496.574L259.954 494.253L270.634 492.028L272.454 478.233Z" fill="white"/>
</g>
<g style="mix-blend-mode:lighten" opacity="0.5">
<path d="M582.134 549.972L583.829 563.782L594.489 566.103L583.809 568.329L581.989 582.123L580.294 568.313L569.634 565.991L580.314 563.766L582.134 549.972Z" fill="white"/>
<path d="M639.22 518.077L640.916 531.887L651.576 534.208L640.895 536.434L639.076 550.228L637.38 536.418L626.72 534.097L637.401 531.871L639.22 518.077Z" fill="white"/>
<path d="M633.056 582.353L634.752 596.163L645.412 598.484L634.731 600.709L632.912 614.504L631.216 600.694L620.556 598.372L631.237 596.147L633.056 582.353Z" fill="white"/>
<path d="M584.202 492.108L585.898 505.918L596.558 508.24L585.877 510.465L584.058 524.259L582.362 510.449L571.702 508.128L582.383 505.902L584.202 492.108Z" fill="white"/>
<path d="M651.683 460.26L653.378 474.07L664.038 476.392L653.358 478.617L651.538 492.411L649.843 478.601L639.183 476.28L649.863 474.054L651.683 460.26Z" fill="white"/>
<path d="M601.32 508.714L603.015 522.524L613.675 524.846L602.995 527.071L601.175 540.865L599.48 527.055L588.82 524.734L599.5 522.508L601.32 508.714Z" fill="white"/>
<path d="M601.32 508.714L603.015 522.524L613.675 524.846L602.995 527.071L601.175 540.865L599.48 527.055L588.82 524.734L599.5 522.508L601.32 508.714Z" fill="white"/>
</g>
<g style="mix-blend-mode:lighten" opacity="0.5">
<path d="M146.269 519.01L147.964 532.82L158.624 535.141L147.944 537.366L146.124 551.161L144.428 537.351L133.768 535.029L144.449 532.804L146.269 519.01Z" fill="white"/>
<path d="M203.355 487.115L205.05 500.925L215.71 503.246L205.03 505.472L203.21 519.266L201.515 505.456L190.855 503.134L201.535 500.909L203.355 487.115Z" fill="white"/>
<path d="M197.191 551.39L198.886 565.2L209.546 567.522L198.866 569.747L197.046 583.541L195.351 569.731L184.691 567.41L195.371 565.184L197.191 551.39Z" fill="white"/>
<path d="M148.337 461.146L150.032 474.956L160.692 477.277L150.012 479.503L148.192 493.297L146.497 479.487L135.837 477.166L146.517 474.94L148.337 461.146Z" fill="white"/>
<path d="M215.817 429.298L217.513 443.108L228.173 445.429L217.492 447.655L215.673 461.449L213.977 447.639L203.317 445.317L213.998 443.092L215.817 429.298Z" fill="white"/>
<path d="M165.455 477.752L167.15 491.562L177.81 493.883L167.13 496.109L165.31 509.903L163.615 496.093L152.955 493.772L163.635 491.546L165.455 477.752Z" fill="white"/>
<path d="M165.455 477.752L167.15 491.562L177.81 493.883L167.13 496.109L165.31 509.903L163.615 496.093L152.955 493.772L163.635 491.546L165.455 477.752Z" fill="white"/>
</g>
<g style="mix-blend-mode:lighten" opacity="0.5">
<path d="M430.191 536.859L431.887 550.669L442.547 552.991L431.866 555.216L430.047 569.01L428.351 555.2L417.691 552.879L428.372 550.653L430.191 536.859Z" fill="white"/>
<path d="M487.278 504.964L488.973 518.774L499.633 521.096L488.953 523.321L487.133 537.115L485.438 523.305L474.778 520.984L485.458 518.759L487.278 504.964Z" fill="white"/>
<path d="M481.114 569.24L482.809 583.05L493.469 585.371L482.789 587.597L480.969 601.391L479.274 587.581L468.614 585.259L479.294 583.034L481.114 569.24Z" fill="white"/>
<path d="M432.26 478.996L433.955 492.806L444.615 495.127L433.935 497.352L432.115 511.147L430.42 497.337L419.76 495.015L430.44 492.79L432.26 478.996Z" fill="white"/>
<path d="M499.74 447.148L501.436 460.957L512.096 463.279L501.415 465.504L499.596 479.298L497.9 465.489L487.24 463.167L497.921 460.942L499.74 447.148Z" fill="white"/>
<path d="M449.377 495.602L451.073 509.412L461.733 511.733L451.052 513.958L449.233 527.753L447.537 513.943L436.877 511.621L447.558 509.396L449.377 495.602Z" fill="white"/>
<path d="M449.377 495.602L451.073 509.412L461.733 511.733L451.052 513.958L449.233 527.753L447.537 513.943L436.877 511.621L447.558 509.396L449.377 495.602Z" fill="white"/>
</g>
<g style="mix-blend-mode:lighten" opacity="0.5">
<path d="M756.62 664.69L758.315 678.5L768.975 680.822L758.295 683.047L756.475 696.841L754.78 683.031L744.12 680.71L754.8 678.484L756.62 664.69Z" fill="white"/>
<path d="M813.706 632.795L815.402 646.605L826.062 648.927L815.381 651.152L813.561 664.946L811.866 651.137L801.206 648.815L811.886 646.59L813.706 632.795Z" fill="white"/>
<path d="M807.542 697.071L809.237 710.881L819.897 713.202L809.217 715.428L807.397 729.222L805.702 715.412L795.042 713.091L805.722 710.865L807.542 697.071Z" fill="white"/>
<path d="M758.688 606.827L760.383 620.637L771.043 622.958L760.363 625.183L758.543 638.978L756.848 625.168L746.188 622.846L756.868 620.621L758.688 606.827Z" fill="white"/>
<path d="M826.168 574.979L827.864 588.789L838.524 591.11L827.843 593.335L826.024 607.13L824.328 593.32L813.668 590.998L824.349 588.773L826.168 574.979Z" fill="white"/>
<path d="M775.806 623.433L777.501 637.243L788.161 639.564L777.481 641.789L775.661 655.584L773.966 641.774L763.306 639.452L773.986 637.227L775.806 623.433Z" fill="white"/>
<path d="M775.806 623.433L777.501 637.243L788.161 639.564L777.481 641.789L775.661 655.584L773.966 641.774L763.306 639.452L773.986 637.227L775.806 623.433Z" fill="white"/>
</g>
<g style="mix-blend-mode:lighten" opacity="0.5">
<path d="M656.2 313.117L657.896 326.927L668.556 329.248L657.875 331.474L656.056 345.268L654.36 331.458L643.7 329.136L654.381 326.911L656.2 313.117Z" fill="white"/>
<path d="M713.287 281.222L714.982 295.032L725.642 297.353L714.962 299.579L713.142 313.373L711.447 299.563L700.787 297.242L711.467 295.016L713.287 281.222Z" fill="white"/>
<path d="M707.123 345.497L708.818 359.307L719.478 361.629L708.798 363.854L706.978 377.648L705.282 363.838L694.622 361.517L705.303 359.292L707.123 345.497Z" fill="white"/>
<path d="M658.269 255.253L659.964 269.063L670.624 271.385L659.944 273.61L658.124 287.404L656.428 273.594L645.768 271.273L656.449 269.047L658.269 255.253Z" fill="white"/>
<path d="M725.749 223.405L727.444 237.215L738.104 239.536L727.424 241.762L725.604 255.556L723.909 241.746L713.249 239.425L723.929 237.199L725.749 223.405Z" fill="white"/>
<path d="M675.386 271.859L677.082 285.669L687.742 287.991L677.061 290.216L675.242 304.01L673.546 290.2L662.886 287.879L673.567 285.653L675.386 271.859Z" fill="white"/>
<path d="M675.386 271.859L677.082 285.669L687.742 287.991L677.061 290.216L675.242 304.01L673.546 290.2L662.886 287.879L673.567 285.653L675.386 271.859Z" fill="white"/>
</g>
<g style="mix-blend-mode:lighten" opacity="0.5">
<path d="M911.711 644.673L913.406 658.483L924.066 660.804L913.386 663.03L911.566 676.824L909.871 663.014L899.211 660.692L909.891 658.467L911.711 644.673Z" fill="white"/>
<path d="M968.797 612.778L970.493 626.588L981.153 628.91L970.472 631.135L968.653 644.929L966.957 631.119L956.297 628.798L966.978 626.572L968.797 612.778Z" fill="white"/>
<path d="M962.633 677.054L964.329 690.864L974.989 693.185L964.308 695.41L962.489 709.205L960.793 695.395L950.133 693.073L960.814 690.848L962.633 677.054Z" fill="white"/>
<path d="M913.779 586.809L915.475 600.619L926.135 602.941L915.454 605.166L913.635 618.96L911.939 605.15L901.279 602.829L911.96 600.603L913.779 586.809Z" fill="white"/>
<path d="M981.26 554.961L982.955 568.771L993.615 571.093L982.935 573.318L981.115 587.112L979.42 573.302L968.76 570.981L979.44 568.755L981.26 554.961Z" fill="white"/>
<path d="M930.897 603.415L932.592 617.225L943.252 619.547L932.572 621.772L930.752 635.566L929.057 621.756L918.397 619.435L929.077 617.209L930.897 603.415Z" fill="white"/>
<path d="M930.897 603.415L932.592 617.225L943.252 619.547L932.572 621.772L930.752 635.566L929.057 621.756L918.397 619.435L929.077 617.209L930.897 603.415Z" fill="white"/>
</g>
<g style="mix-blend-mode:lighten" opacity="0.5">
<path d="M497.804 623.131L499.499 636.941L510.159 639.263L499.479 641.488L497.659 655.282L495.964 641.472L485.304 639.151L495.984 636.925L497.804 623.131Z" fill="white"/>
<path d="M554.89 591.236L556.586 605.046L567.246 607.368L556.565 609.593L554.746 623.387L553.05 609.577L542.39 607.256L553.071 605.031L554.89 591.236Z" fill="white"/>
<path d="M548.726 655.512L550.422 669.322L561.082 671.643L550.401 673.869L548.581 687.663L546.886 673.853L536.226 671.532L546.906 669.306L548.726 655.512Z" fill="white"/>
<path d="M499.872 565.268L501.568 579.078L512.228 581.399L501.547 583.624L499.727 597.419L498.032 583.609L487.372 581.287L498.052 579.062L499.872 565.268Z" fill="white"/>
<path d="M567.353 533.42L569.048 547.229L579.708 549.551L569.028 551.776L567.208 565.57L565.512 551.761L554.852 549.439L565.533 547.214L567.353 533.42Z" fill="white"/>
<path d="M516.99 581.874L518.685 595.684L529.345 598.005L518.665 600.23L516.845 614.025L515.15 600.215L504.49 597.893L515.17 595.668L516.99 581.874Z" fill="white"/>
<path d="M516.99 581.874L518.685 595.684L529.345 598.005L518.665 600.23L516.845 614.025L515.15 600.215L504.49 597.893L515.17 595.668L516.99 581.874Z" fill="white"/>
</g>
<g style="mix-blend-mode:lighten" opacity="0.5">
<path d="M552.714 198.718L554.41 212.528L565.07 214.849L554.389 217.075L552.57 230.869L550.874 217.059L540.214 214.737L550.895 212.512L552.714 198.718Z" fill="white"/>
<path d="M609.8 166.823L611.496 180.633L622.156 182.954L611.475 185.18L609.656 198.974L607.96 185.164L597.3 182.843L607.981 180.617L609.8 166.823Z" fill="white"/>
<path d="M603.636 231.098L605.332 244.908L615.992 247.23L605.311 249.455L603.492 263.249L601.796 249.439L591.136 247.118L601.817 244.893L603.636 231.098Z" fill="white"/>
<path d="M554.782 140.854L556.478 154.664L567.138 156.986L556.457 159.211L554.638 173.005L552.942 159.195L542.282 156.874L552.963 154.648L554.782 140.854Z" fill="white"/>
<path d="M622.263 109.006L623.958 122.816L634.618 125.137L623.938 127.363L622.118 141.157L620.423 127.347L609.763 125.026L620.443 122.8L622.263 109.006Z" fill="white"/>
<path d="M571.9 157.46L573.595 171.27L584.255 173.592L573.575 175.817L571.755 189.611L570.06 175.801L559.4 173.48L570.08 171.254L571.9 157.46Z" fill="white"/>
<path d="M571.9 157.46L573.595 171.27L584.255 173.592L573.575 175.817L571.755 189.611L570.06 175.801L559.4 173.48L570.08 171.254L571.9 157.46Z" fill="white"/>
</g>
<g style="mix-blend-mode:lighten" opacity="0.5">
<path d="M13.3521 722.456L15.0475 736.266L25.7075 738.587L15.0271 740.812L13.2074 754.607L11.512 740.797L0.851986 738.475L11.5324 736.25L13.3521 722.456Z" fill="white"/>
<path d="M70.4385 690.561L72.134 704.371L82.7939 706.692L72.1135 708.918L70.2938 722.712L68.5984 708.902L57.9384 706.58L68.6188 704.355L70.4385 690.561Z" fill="white"/>
<path d="M64.2744 754.836L65.9699 768.646L76.6299 770.968L65.9494 773.193L64.1298 786.987L62.4343 773.177L51.7743 770.856L62.4548 768.63L64.2744 754.836Z" fill="white"/>
<path d="M15.4204 664.592L17.1159 678.402L27.7759 680.723L17.0954 682.949L15.2758 696.743L13.5803 682.933L2.92035 680.612L13.6008 678.386L15.4204 664.592Z" fill="white"/>
<path d="M82.9009 632.744L84.5964 646.554L95.2563 648.875L84.5759 651.101L82.7562 664.895L81.0608 651.085L70.4008 648.764L81.0813 646.538L82.9009 632.744Z" fill="white"/>
<path d="M32.5381 681.198L34.2336 695.008L44.8935 697.329L34.2131 699.555L32.3934 713.349L30.698 699.539L20.038 697.218L30.7185 694.992L32.5381 681.198Z" fill="white"/>
<path d="M32.5381 681.198L34.2336 695.008L44.8935 697.329L34.2131 699.555L32.3934 713.349L30.698 699.539L20.038 697.218L30.7185 694.992L32.5381 681.198Z" fill="white"/>
</g>
<g style="mix-blend-mode:lighten" opacity="0.5">
<path d="M428.305 289.305L430.001 303.115L440.661 305.436L429.98 307.661L428.161 321.456L426.465 307.646L415.805 305.324L426.486 303.099L428.305 289.305Z" fill="white"/>
<path d="M485.392 257.41L487.087 271.22L497.747 273.541L487.067 275.767L485.247 289.561L483.552 275.751L472.892 273.429L483.572 271.204L485.392 257.41Z" fill="white"/>
<path d="M479.228 321.685L480.923 335.495L491.583 337.817L480.903 340.042L479.083 353.836L477.387 340.026L466.727 337.705L477.408 335.479L479.228 321.685Z" fill="white"/>
<path d="M430.374 231.441L432.069 245.251L442.729 247.572L432.049 249.798L430.229 263.592L428.533 249.782L417.873 247.461L428.554 245.235L430.374 231.441Z" fill="white"/>
<path d="M497.854 199.593L499.549 213.403L510.209 215.724L499.529 217.95L497.709 231.744L496.014 217.934L485.354 215.612L496.034 213.387L497.854 199.593Z" fill="white"/>
<path d="M447.491 248.047L449.187 261.857L459.847 264.178L449.166 266.404L447.347 280.198L445.651 266.388L434.991 264.066L445.672 261.841L447.491 248.047Z" fill="white"/>
<path d="M447.491 248.047L449.187 261.857L459.847 264.178L449.166 266.404L447.347 280.198L445.651 266.388L434.991 264.066L445.672 261.841L447.491 248.047Z" fill="white"/>
</g>
<g style="mix-blend-mode:lighten" opacity="0.5">
<path d="M342.218 752.937L343.914 766.747L354.574 769.068L343.893 771.293L342.074 785.088L340.378 771.278L329.718 768.956L340.399 766.731L342.218 752.937Z" fill="white"/>
<path d="M399.305 721.042L401 734.852L411.66 737.173L400.98 739.399L399.16 753.193L397.465 739.383L386.805 737.061L397.485 734.836L399.305 721.042Z" fill="white"/>
<path d="M393.141 785.317L394.836 799.127L405.496 801.449L394.816 803.674L392.996 817.468L391.301 803.658L380.641 801.337L391.321 799.112L393.141 785.317Z" fill="white"/>
<path d="M344.287 695.073L345.982 708.883L356.642 711.204L345.962 713.43L344.142 727.224L342.447 713.414L331.787 711.093L342.467 708.867L344.287 695.073Z" fill="white"/>
<path d="M411.767 663.225L413.463 677.035L424.123 679.356L413.442 681.582L411.622 695.376L409.927 681.566L399.267 679.245L409.947 677.019L411.767 663.225Z" fill="white"/>
<path d="M361.404 711.679L363.1 725.489L373.76 727.81L363.079 730.036L361.26 743.83L359.564 730.02L348.904 727.699L359.585 725.473L361.404 711.679Z" fill="white"/>
<path d="M361.404 711.679L363.1 725.489L373.76 727.81L363.079 730.036L361.26 743.83L359.564 730.02L348.904 727.699L359.585 725.473L361.404 711.679Z" fill="white"/>
</g>
<g style="mix-blend-mode:lighten" opacity="0.5">
<path d="M1123.93 374.259L1125.63 388.069L1136.29 390.391L1125.61 392.616L1123.79 406.41L1122.09 392.6L1111.43 390.279L1122.11 388.053L1123.93 374.259Z" fill="white"/>
<path d="M1181.02 342.364L1182.71 356.174L1193.37 358.496L1182.69 360.721L1180.87 374.515L1179.18 360.706L1168.52 358.384L1179.2 356.159L1181.02 342.364Z" fill="white"/>
<path d="M1174.85 406.64L1176.55 420.45L1187.21 422.771L1176.53 424.997L1174.71 438.791L1173.01 424.981L1162.35 422.66L1173.03 420.434L1174.85 406.64Z" fill="white"/>
<path d="M1126 316.396L1127.69 330.206L1138.35 332.527L1127.67 334.752L1125.85 348.547L1124.16 334.737L1113.5 332.415L1124.18 330.19L1126 316.396Z" fill="white"/>
<path d="M1193.48 284.548L1195.17 298.358L1205.83 300.679L1195.15 302.904L1193.33 316.699L1191.64 302.889L1180.98 300.567L1191.66 298.342L1193.48 284.548Z" fill="white"/>
<path d="M1143.12 333.002L1144.81 346.812L1155.47 349.133L1144.79 351.358L1142.97 365.153L1141.28 351.343L1130.62 349.021L1141.3 346.796L1143.12 333.002Z" fill="white"/>
<path d="M1143.12 333.002L1144.81 346.812L1155.47 349.133L1144.79 351.358L1142.97 365.153L1141.28 351.343L1130.62 349.021L1141.3 346.796L1143.12 333.002Z" fill="white"/>
</g>
<g style="mix-blend-mode:lighten" opacity="0.5">
<path d="M190.276 739.824L191.971 753.634L202.631 755.955L191.951 758.181L190.131 771.975L188.436 758.165L177.776 755.843L188.456 753.618L190.276 739.824Z" fill="white"/>
<path d="M247.362 707.929L249.058 721.739L259.718 724.06L249.037 726.286L247.218 740.08L245.522 726.27L234.862 723.949L245.543 721.723L247.362 707.929Z" fill="white"/>
<path d="M241.198 772.205L242.894 786.014L253.554 788.336L242.873 790.561L241.054 804.355L239.358 790.546L228.698 788.224L239.379 785.999L241.198 772.205Z" fill="white"/>
<path d="M192.344 681.96L194.04 695.77L204.7 698.092L194.019 700.317L192.2 714.111L190.504 700.301L179.844 697.98L190.525 695.754L192.344 681.96Z" fill="white"/>
<path d="M259.825 650.112L261.52 663.922L272.18 666.244L261.5 668.469L259.68 682.263L257.985 668.453L247.325 666.132L258.005 663.906L259.825 650.112Z" fill="white"/>
<path d="M209.462 698.566L211.157 712.376L221.817 714.698L211.137 716.923L209.317 730.717L207.622 716.907L196.962 714.586L207.642 712.36L209.462 698.566Z" fill="white"/>
<path d="M209.462 698.566L211.157 712.376L221.817 714.698L211.137 716.923L209.317 730.717L207.622 716.907L196.962 714.586L207.642 712.36L209.462 698.566Z" fill="white"/>
</g>
<g style="mix-blend-mode:lighten" opacity="0.5">
<path d="M312.799 401.682L314.494 415.492L325.154 417.814L314.474 420.039L312.654 433.833L310.959 420.023L300.299 417.702L310.979 415.477L312.799 401.682Z" fill="white"/>
<path d="M369.885 369.788L371.58 383.598L382.24 385.919L371.56 388.144L369.74 401.939L368.045 388.129L357.385 385.807L368.065 383.582L369.885 369.788Z" fill="white"/>
<path d="M363.721 434.063L365.416 447.873L376.076 450.195L365.396 452.42L363.576 466.214L361.881 452.404L351.221 450.083L361.901 447.857L363.721 434.063Z" fill="white"/>
<path d="M314.867 343.819L316.562 357.629L327.222 359.95L316.542 362.176L314.722 375.97L313.027 362.16L302.367 359.838L313.047 357.613L314.867 343.819Z" fill="white"/>
<path d="M382.347 311.971L384.043 325.781L394.703 328.102L384.022 330.328L382.203 344.122L380.507 330.312L369.847 327.99L380.528 325.765L382.347 311.971Z" fill="white"/>
<path d="M331.984 360.425L333.68 374.235L344.34 376.556L333.659 378.782L331.84 392.576L330.144 378.766L319.484 376.444L330.165 374.219L331.984 360.425Z" fill="white"/>
<path d="M331.984 360.425L333.68 374.235L344.34 376.556L333.659 378.782L331.84 392.576L330.144 378.766L319.484 376.444L330.165 374.219L331.984 360.425Z" fill="white"/>
</g>
<g style="mix-blend-mode:lighten" opacity="0.5">
<path d="M759.058 567.34L760.753 581.15L771.413 583.471L760.733 585.697L758.913 599.491L757.218 585.681L746.558 583.36L757.238 581.134L759.058 567.34Z" fill="white"/>
<path d="M816.144 535.445L817.84 549.255L828.499 551.577L817.819 553.802L815.999 567.596L814.304 553.786L803.644 551.465L814.324 549.239L816.144 535.445Z" fill="white"/>
<path d="M809.98 599.721L811.675 613.531L822.335 615.852L811.655 618.078L809.835 631.872L808.14 618.062L797.48 615.74L808.16 613.515L809.98 599.721Z" fill="white"/>
<path d="M761.126 509.476L762.821 523.286L773.481 525.608L762.801 527.833L760.981 541.627L759.286 527.817L748.626 525.496L759.306 523.271L761.126 509.476Z" fill="white"/>
<path d="M828.606 477.628L830.302 491.438L840.962 493.76L830.281 495.985L828.462 509.779L826.766 495.969L816.106 493.648L826.787 491.423L828.606 477.628Z" fill="white"/>
<path d="M778.244 526.082L779.939 539.892L790.599 542.214L779.919 544.439L778.099 558.233L776.404 544.423L765.744 542.102L776.424 539.877L778.244 526.082Z" fill="white"/>
<path d="M778.244 526.082L779.939 539.892L790.599 542.214L779.919 544.439L778.099 558.233L776.404 544.423L765.744 542.102L776.424 539.877L778.244 526.082Z" fill="white"/>
</g>
<g style="mix-blend-mode:lighten" opacity="0.5">
<path d="M188.39 492.269L190.085 506.079L200.745 508.401L190.065 510.626L188.245 524.42L186.55 510.61L175.89 508.289L186.57 506.064L188.39 492.269Z" fill="white"/>
<path d="M245.476 460.375L247.172 474.185L257.832 476.506L247.151 478.731L245.331 492.526L243.636 478.716L232.976 476.394L243.656 474.169L245.476 460.375Z" fill="white"/>
<path d="M239.312 524.65L241.007 538.46L251.667 540.781L240.987 543.007L239.167 556.801L237.472 542.991L226.812 540.67L237.492 538.444L239.312 524.65Z" fill="white"/>
<path d="M190.458 434.406L192.153 448.216L202.813 450.537L192.133 452.763L190.313 466.557L188.618 452.747L177.958 450.425L188.638 448.2L190.458 434.406Z" fill="white"/>
<path d="M257.939 402.558L259.634 416.368L270.294 418.689L259.613 420.915L257.794 434.709L256.098 420.899L245.438 418.577L256.119 416.352L257.939 402.558Z" fill="white"/>
<path d="M207.576 451.012L209.271 464.822L219.931 467.143L209.251 469.369L207.431 483.163L205.736 469.353L195.076 467.031L205.756 464.806L207.576 451.012Z" fill="white"/>
<path d="M207.576 451.012L209.271 464.822L219.931 467.143L209.251 469.369L207.431 483.163L205.736 469.353L195.076 467.031L205.756 464.806L207.576 451.012Z" fill="white"/>
</g>
<g style="mix-blend-mode:lighten" opacity="0.5">
<path d="M1300.85 391.627L1302.55 405.437L1313.21 407.759L1302.53 409.984L1300.71 423.778L1299.01 409.968L1288.35 407.647L1299.03 405.422L1300.85 391.627Z" fill="white"/>
<path d="M1357.94 359.733L1359.64 373.543L1370.3 375.864L1359.61 378.089L1357.8 391.884L1356.1 378.074L1345.44 375.752L1356.12 373.527L1357.94 359.733Z" fill="white"/>
<path d="M1351.78 424.008L1353.47 437.818L1364.13 440.14L1353.45 442.365L1351.63 456.159L1349.94 442.349L1339.28 440.028L1349.96 437.802L1351.78 424.008Z" fill="white"/>
<path d="M1302.92 333.764L1304.62 347.574L1315.28 349.895L1304.6 352.121L1302.78 365.915L1301.08 352.105L1290.42 349.783L1301.1 347.558L1302.92 333.764Z" fill="white"/>
<path d="M1370.4 301.916L1372.1 315.726L1382.76 318.047L1372.08 320.273L1370.26 334.067L1368.56 320.257L1357.9 317.935L1368.58 315.71L1370.4 301.916Z" fill="white"/>
<path d="M1320.04 350.37L1321.74 364.18L1332.4 366.501L1321.71 368.727L1319.89 382.521L1318.2 368.711L1307.54 366.389L1318.22 364.164L1320.04 350.37Z" fill="white"/>
<path d="M1320.04 350.37L1321.74 364.18L1332.4 366.501L1321.71 368.727L1319.89 382.521L1318.2 368.711L1307.54 366.389L1318.22 364.164L1320.04 350.37Z" fill="white"/>
</g>
<g style="mix-blend-mode:lighten" opacity="0.5">
<path d="M1008.29 516.674L1009.98 530.484L1020.64 532.805L1009.96 535.03L1008.14 548.825L1006.45 535.015L995.788 532.693L1006.47 530.468L1008.29 516.674Z" fill="white"/>
<path d="M1065.37 484.779L1067.07 498.589L1077.73 500.91L1067.05 503.136L1065.23 516.93L1063.53 503.12L1052.87 500.798L1063.55 498.573L1065.37 484.779Z" fill="white"/>
<path d="M1059.21 549.054L1060.91 562.864L1071.57 565.186L1060.89 567.411L1059.07 581.205L1057.37 567.395L1046.71 565.074L1057.39 562.848L1059.21 549.054Z" fill="white"/>
<path d="M1010.36 458.81L1012.05 472.62L1022.71 474.941L1012.03 477.167L1010.21 490.961L1008.52 477.151L997.856 474.829L1008.54 472.604L1010.36 458.81Z" fill="white"/>
<path d="M1077.84 426.962L1079.53 440.772L1090.19 443.093L1079.51 445.319L1077.69 459.113L1076 445.303L1065.34 442.981L1076.02 440.756L1077.84 426.962Z" fill="white"/>
<path d="M1027.47 475.416L1029.17 489.226L1039.83 491.547L1029.15 493.773L1027.33 507.567L1025.63 493.757L1014.97 491.435L1025.65 489.21L1027.47 475.416Z" fill="white"/>
<path d="M1027.47 475.416L1029.17 489.226L1039.83 491.547L1029.15 493.773L1027.33 507.567L1025.63 493.757L1014.97 491.435L1025.65 489.21L1027.47 475.416Z" fill="white"/>
</g>
<g style="mix-blend-mode:lighten" opacity="0.5">
<path d="M1055.94 372.918L1057.63 386.728L1068.29 389.049L1057.61 391.275L1055.79 405.069L1054.1 391.259L1043.44 388.937L1054.12 386.712L1055.94 372.918Z" fill="white"/>
<path d="M1113.02 341.023L1114.72 354.833L1125.38 357.154L1114.7 359.38L1112.88 373.174L1111.18 359.364L1100.52 357.043L1111.2 354.817L1113.02 341.023Z" fill="white"/>
<path d="M1106.86 405.298L1108.55 419.108L1119.21 421.43L1108.53 423.655L1106.71 437.449L1105.02 423.639L1094.36 421.318L1105.04 419.093L1106.86 405.298Z" fill="white"/>
<path d="M1058 315.054L1059.7 328.864L1070.36 331.186L1059.68 333.411L1057.86 347.205L1056.16 333.395L1045.5 331.074L1056.18 328.848L1058 315.054Z" fill="white"/>
<path d="M1125.48 283.206L1127.18 297.016L1137.84 299.337L1127.16 301.563L1125.34 315.357L1123.64 301.547L1112.98 299.226L1123.66 297L1125.48 283.206Z" fill="white"/>
<path d="M1075.12 331.66L1076.82 345.47L1087.48 347.792L1076.8 350.017L1074.98 363.811L1073.28 350.001L1062.62 347.68L1073.3 345.454L1075.12 331.66Z" fill="white"/>
<path d="M1075.12 331.66L1076.82 345.47L1087.48 347.792L1076.8 350.017L1074.98 363.811L1073.28 350.001L1062.62 347.68L1073.3 345.454L1075.12 331.66Z" fill="white"/>
</g>
<g style="mix-blend-mode:lighten" opacity="0.5">
<path d="M748.409 266.922L750.105 280.732L760.765 283.054L750.084 285.279L748.265 299.073L746.569 285.263L735.909 282.942L746.59 280.717L748.409 266.922Z" fill="white"/>
<path d="M805.496 235.028L807.191 248.838L817.851 251.159L807.171 253.384L805.351 267.179L803.656 253.369L792.996 251.047L803.676 248.822L805.496 235.028Z" fill="white"/>
<path d="M799.332 299.303L801.027 313.113L811.687 315.435L801.007 317.66L799.187 331.454L797.491 317.644L786.831 315.323L797.512 313.097L799.332 299.303Z" fill="white"/>
<path d="M750.478 209.059L752.173 222.869L762.833 225.19L752.153 227.416L750.333 241.21L748.637 227.4L737.977 225.078L748.658 222.853L750.478 209.059Z" fill="white"/>
<path d="M817.958 177.211L819.653 191.021L830.313 193.342L819.633 195.568L817.813 209.362L816.118 195.552L805.458 193.23L816.138 191.005L817.958 177.211Z" fill="white"/>
<path d="M767.595 225.665L769.291 239.475L779.951 241.796L769.27 244.022L767.451 257.816L765.755 244.006L755.095 241.684L765.776 239.459L767.595 225.665Z" fill="white"/>
<path d="M767.595 225.665L769.291 239.475L779.951 241.796L769.27 244.022L767.451 257.816L765.755 244.006L755.095 241.684L765.776 239.459L767.595 225.665Z" fill="white"/>
</g>
<g style="mix-blend-mode:lighten" opacity="0.5">
<path d="M1134.97 587.675L1136.67 601.485L1147.33 603.807L1136.64 606.032L1134.83 619.826L1133.13 606.016L1122.47 603.695L1133.15 601.469L1134.97 587.675Z" fill="white"/>
<path d="M1192.06 555.78L1193.75 569.59L1204.41 571.912L1193.73 574.137L1191.91 587.931L1190.22 574.121L1179.56 571.8L1190.24 569.574L1192.06 555.78Z" fill="white"/>
<path d="M1185.89 620.056L1187.59 633.866L1198.25 636.187L1187.57 638.413L1185.75 652.207L1184.05 638.397L1173.39 636.075L1184.07 633.85L1185.89 620.056Z" fill="white"/>
<path d="M1137.04 529.811L1138.73 543.621L1149.39 545.943L1138.71 548.168L1136.89 561.962L1135.2 548.152L1124.54 545.831L1135.22 543.606L1137.04 529.811Z" fill="white"/>
<path d="M1204.52 497.963L1206.21 511.773L1216.87 514.095L1206.19 516.32L1204.37 530.114L1202.68 516.304L1192.02 513.983L1202.7 511.758L1204.52 497.963Z" fill="white"/>
<path d="M1154.16 546.417L1155.85 560.227L1166.51 562.549L1155.83 564.774L1154.01 578.568L1152.32 564.758L1141.66 562.437L1152.34 560.212L1154.16 546.417Z" fill="white"/>
<path d="M1154.16 546.417L1155.85 560.227L1166.51 562.549L1155.83 564.774L1154.01 578.568L1152.32 564.758L1141.66 562.437L1152.34 560.212L1154.16 546.417Z" fill="white"/>
</g>
<g style="mix-blend-mode:lighten" opacity="0.5">
<path d="M773.176 318.822L774.871 332.632L785.531 334.953L774.851 337.179L773.031 350.973L771.336 337.163L760.676 334.841L771.356 332.616L773.176 318.822Z" fill="white"/>
<path d="M830.262 286.927L831.958 300.737L842.618 303.058L831.937 305.284L830.118 319.078L828.422 305.268L817.762 302.947L828.443 300.721L830.262 286.927Z" fill="white"/>
<path d="M824.098 351.203L825.794 365.013L836.454 367.334L825.773 369.559L823.954 383.354L822.258 369.544L811.598 367.222L822.279 364.997L824.098 351.203Z" fill="white"/>
<path d="M775.244 260.958L776.94 274.768L787.6 277.09L776.919 279.315L775.1 293.109L773.404 279.299L762.744 276.978L773.425 274.752L775.244 260.958Z" fill="white"/>
<path d="M842.725 229.11L844.42 242.92L855.08 245.242L844.4 247.467L842.58 261.261L840.885 247.451L830.225 245.13L840.905 242.904L842.725 229.11Z" fill="white"/>
<path d="M792.362 277.564L794.057 291.374L804.717 293.696L794.037 295.921L792.217 309.715L790.522 295.905L779.862 293.584L790.542 291.358L792.362 277.564Z" fill="white"/>
<path d="M792.362 277.564L794.057 291.374L804.717 293.696L794.037 295.921L792.217 309.715L790.522 295.905L779.862 293.584L790.542 291.358L792.362 277.564Z" fill="white"/>
</g>
<g style="mix-blend-mode:lighten" opacity="0.5">
<path d="M886.793 404.265L888.488 418.075L899.148 420.397L888.467 422.622L886.648 436.416L884.952 422.606L874.292 420.285L884.973 418.059L886.793 404.265Z" fill="white"/>
<path d="M943.879 372.37L945.574 386.18L956.234 388.502L945.554 390.727L943.734 404.521L942.039 390.711L931.379 388.39L942.059 386.165L943.879 372.37Z" fill="white"/>
<path d="M937.715 436.646L939.41 450.456L950.07 452.777L939.39 455.003L937.57 468.797L935.875 454.987L925.215 452.665L935.895 450.44L937.715 436.646Z" fill="white"/>
<path d="M888.861 346.402L890.556 360.212L901.216 362.533L890.536 364.758L888.716 378.553L887.021 364.743L876.361 362.421L887.041 360.196L888.861 346.402Z" fill="white"/>
<path d="M956.341 314.553L958.037 328.363L968.697 330.685L958.016 332.91L956.197 346.704L954.501 332.894L943.841 330.573L954.522 328.348L956.341 314.553Z" fill="white"/>
<path d="M905.979 363.008L907.674 376.818L918.334 379.139L907.654 381.364L905.834 395.159L904.138 381.349L893.478 379.027L904.159 376.802L905.979 363.008Z" fill="white"/>
<path d="M905.979 363.008L907.674 376.818L918.334 379.139L907.654 381.364L905.834 395.159L904.138 381.349L893.478 379.027L904.159 376.802L905.979 363.008Z" fill="white"/>
</g>
<g style="mix-blend-mode:lighten" opacity="0.5">
<path d="M658.802 623.856L660.498 637.666L671.158 639.987L660.477 642.213L658.658 656.007L656.962 642.197L646.302 639.875L656.983 637.65L658.802 623.856Z" fill="white"/>
<path d="M715.889 591.961L717.584 605.771L728.244 608.092L717.564 610.318L715.744 624.112L714.049 610.302L703.389 607.981L714.069 605.755L715.889 591.961Z" fill="white"/>
<path d="M709.725 656.236L711.42 670.046L722.08 672.368L711.4 674.593L709.58 688.387L707.885 674.577L697.225 672.256L707.905 670.031L709.725 656.236Z" fill="white"/>
<path d="M660.871 565.992L662.566 579.802L673.226 582.124L662.546 584.349L660.726 598.143L659.031 584.333L648.371 582.012L659.051 579.786L660.871 565.992Z" fill="white"/>
<path d="M728.351 534.144L730.047 547.954L740.707 550.275L730.026 552.501L728.206 566.295L726.511 552.485L715.851 550.164L726.531 547.938L728.351 534.144Z" fill="white"/>
<path d="M677.988 582.598L679.684 596.408L690.344 598.729L679.663 600.955L677.844 614.749L676.148 600.939L665.488 598.618L676.169 596.392L677.988 582.598Z" fill="white"/>
<path d="M677.988 582.598L679.684 596.408L690.344 598.729L679.663 600.955L677.844 614.749L676.148 600.939L665.488 598.618L676.169 596.392L677.988 582.598Z" fill="white"/>
</g>
<g style="mix-blend-mode:lighten" opacity="0.5">
<path d="M546.01 355.087L547.706 368.897L558.366 371.218L547.685 373.444L545.866 387.238L544.17 373.428L533.51 371.107L544.191 368.881L546.01 355.087Z" fill="white"/>
<path d="M603.097 323.192L604.792 337.002L615.452 339.324L604.772 341.549L602.952 355.343L601.257 341.533L590.597 339.212L601.277 336.986L603.097 323.192Z" fill="white"/>
<path d="M596.933 387.468L598.628 401.278L609.288 403.599L598.608 405.824L596.788 419.619L595.093 405.809L584.433 403.487L595.113 401.262L596.933 387.468Z" fill="white"/>
<path d="M548.079 297.223L549.774 311.033L560.434 313.355L549.754 315.58L547.934 329.374L546.239 315.564L535.579 313.243L546.259 311.018L548.079 297.223Z" fill="white"/>
<path d="M615.559 265.375L617.255 279.185L627.915 281.507L617.234 283.732L615.414 297.526L613.719 283.716L603.059 281.395L613.739 279.169L615.559 265.375Z" fill="white"/>
<path d="M565.196 313.829L566.892 327.639L577.552 329.961L566.871 332.186L565.052 345.98L563.356 332.17L552.696 329.849L563.377 327.623L565.196 313.829Z" fill="white"/>
<path d="M565.196 313.829L566.892 327.639L577.552 329.961L566.871 332.186L565.052 345.98L563.356 332.17L552.696 329.849L563.377 327.623L565.196 313.829Z" fill="white"/>
</g>
<g style="mix-blend-mode:lighten" opacity="0.5">
<path d="M728.496 469.841L730.192 483.651L740.852 485.973L730.171 488.198L728.351 501.992L726.656 488.182L715.996 485.861L726.676 483.635L728.496 469.841Z" fill="white"/>
<path d="M785.583 437.947L787.278 451.757L797.938 454.078L787.258 456.303L785.438 470.098L783.742 456.288L773.082 453.966L783.763 451.741L785.583 437.947Z" fill="white"/>
<path d="M779.418 502.222L781.114 516.032L791.774 518.353L781.093 520.579L779.274 534.373L777.578 520.563L766.918 518.242L777.599 516.016L779.418 502.222Z" fill="white"/>
<path d="M730.564 411.978L732.26 425.788L742.92 428.109L732.239 430.335L730.42 444.129L728.724 430.319L718.064 427.997L728.745 425.772L730.564 411.978Z" fill="white"/>
<path d="M798.045 380.13L799.74 393.94L810.4 396.261L799.72 398.486L797.9 412.281L796.205 398.471L785.545 396.149L796.225 393.924L798.045 380.13Z" fill="white"/>
<path d="M747.682 428.584L749.378 442.394L760.038 444.715L749.357 446.941L747.537 460.735L745.842 446.925L735.182 444.603L745.863 442.378L747.682 428.584Z" fill="white"/>
<path d="M747.682 428.584L749.378 442.394L760.038 444.715L749.357 446.941L747.537 460.735L745.842 446.925L735.182 444.603L745.863 442.378L747.682 428.584Z" fill="white"/>
</g>
<g style="mix-blend-mode:lighten" opacity="0.5">
<path d="M798.945 592.378L800.641 606.188L811.301 608.509L800.62 610.734L798.801 624.529L797.105 610.719L786.445 608.397L797.126 606.172L798.945 592.378Z" fill="white"/>
<path d="M856.032 560.483L857.727 574.293L868.387 576.614L857.707 578.84L855.887 592.634L854.192 578.824L843.532 576.502L854.212 574.277L856.032 560.483Z" fill="white"/>
<path d="M849.868 624.758L851.563 638.568L862.223 640.89L851.543 643.115L849.723 656.909L848.028 643.099L837.368 640.778L848.048 638.553L849.868 624.758Z" fill="white"/>
<path d="M801.014 534.514L802.709 548.324L813.369 550.645L802.689 552.871L800.869 566.665L799.174 552.855L788.514 550.534L799.194 548.308L801.014 534.514Z" fill="white"/>
<path d="M868.494 502.666L870.19 516.476L880.85 518.797L870.169 521.023L868.35 534.817L866.654 521.007L855.994 518.686L866.675 516.46L868.494 502.666Z" fill="white"/>
<path d="M818.131 551.12L819.827 564.93L830.487 567.251L819.806 569.477L817.987 583.271L816.291 569.461L805.631 567.14L816.312 564.914L818.131 551.12Z" fill="white"/>
<path d="M818.131 551.12L819.827 564.93L830.487 567.251L819.806 569.477L817.987 583.271L816.291 569.461L805.631 567.14L816.312 564.914L818.131 551.12Z" fill="white"/>
</g>
<g style="mix-blend-mode:lighten" opacity="0.5">
<path d="M960.739 638.679L962.434 652.489L973.094 654.81L962.414 657.036L960.594 670.83L958.899 657.02L948.239 654.699L958.919 652.473L960.739 638.679Z" fill="white"/>
<path d="M1017.83 606.784L1019.52 620.594L1030.18 622.916L1019.5 625.141L1017.68 638.935L1015.99 625.125L1005.33 622.804L1016.01 620.578L1017.83 606.784Z" fill="white"/>
<path d="M1011.66 671.06L1013.36 684.87L1024.02 687.191L1013.34 689.417L1011.52 703.211L1009.82 689.401L999.161 687.079L1009.84 684.854L1011.66 671.06Z" fill="white"/>
<path d="M962.807 580.815L964.503 594.625L975.163 596.947L964.482 599.172L962.662 612.966L960.967 599.156L950.307 596.835L960.988 594.61L962.807 580.815Z" fill="white"/>
<path d="M1030.29 548.967L1031.98 562.777L1042.64 565.099L1031.96 567.324L1030.14 581.118L1028.45 567.308L1017.79 564.987L1028.47 562.761L1030.29 548.967Z" fill="white"/>
<path d="M979.925 597.421L981.62 611.231L992.28 613.553L981.6 615.778L979.78 629.572L978.085 615.762L967.425 613.441L978.105 611.216L979.925 597.421Z" fill="white"/>
<path d="M979.925 597.421L981.62 611.231L992.28 613.553L981.6 615.778L979.78 629.572L978.085 615.762L967.425 613.441L978.105 611.216L979.925 597.421Z" fill="white"/>
</g>
<g style="mix-blend-mode:lighten" opacity="0.5">
<path d="M1081.78 629.902L1083.47 643.712L1094.13 646.033L1083.45 648.259L1081.63 662.053L1079.94 648.243L1069.28 645.921L1079.96 643.696L1081.78 629.902Z" fill="white"/>
<path d="M1138.87 598.007L1140.56 611.817L1151.22 614.138L1140.54 616.364L1138.72 630.158L1137.03 616.348L1126.37 614.027L1137.05 611.801L1138.87 598.007Z" fill="white"/>
<path d="M1132.7 662.283L1134.4 676.093L1145.06 678.414L1134.38 680.639L1132.56 694.434L1130.86 680.624L1120.2 678.302L1130.88 676.077L1132.7 662.283Z" fill="white"/>
<path d="M1083.85 572.038L1085.54 585.848L1096.2 588.17L1085.52 590.395L1083.7 604.189L1082.01 590.379L1071.35 588.058L1082.03 585.832L1083.85 572.038Z" fill="white"/>
<path d="M1151.33 540.19L1153.02 554L1163.68 556.322L1153 558.547L1151.18 572.341L1149.49 558.531L1138.83 556.21L1149.51 553.984L1151.33 540.19Z" fill="white"/>
<path d="M1100.97 588.644L1102.66 602.454L1113.32 604.776L1102.64 607.001L1100.82 620.795L1099.13 606.985L1088.47 604.664L1099.15 602.438L1100.97 588.644Z" fill="white"/>
<path d="M1100.97 588.644L1102.66 602.454L1113.32 604.776L1102.64 607.001L1100.82 620.795L1099.13 606.985L1088.47 604.664L1099.15 602.438L1100.97 588.644Z" fill="white"/>
</g>
<g style="mix-blend-mode:lighten" opacity="0.5">
<path d="M1391.69 429.324L1393.38 443.134L1404.04 445.455L1393.36 447.68L1391.54 461.475L1389.84 447.665L1379.18 445.343L1389.87 443.118L1391.69 429.324Z" fill="white"/>
<path d="M1442.61 461.704L1444.3 475.514L1454.96 477.836L1444.28 480.061L1442.46 493.855L1440.77 480.045L1430.11 477.724L1440.79 475.498L1442.61 461.704Z" fill="white"/>
<path d="M1393.75 371.46L1395.45 385.27L1406.11 387.591L1395.43 389.817L1393.61 403.611L1391.91 389.801L1381.25 387.48L1391.93 385.254L1393.75 371.46Z" fill="white"/>
<path d="M1410.87 388.066L1412.57 401.876L1423.23 404.197L1412.55 406.423L1410.73 420.217L1409.03 406.407L1398.37 404.086L1409.05 401.86L1410.87 388.066Z" fill="white"/>
<path d="M1410.87 388.066L1412.57 401.876L1423.23 404.197L1412.55 406.423L1410.73 420.217L1409.03 406.407L1398.37 404.086L1409.05 401.86L1410.87 388.066Z" fill="white"/>
</g>
<g style="mix-blend-mode:lighten" opacity="0.5">
<path d="M1303.43 708.581L1305.12 722.391L1315.78 724.712L1305.1 726.938L1303.28 740.732L1301.59 726.922L1290.93 724.601L1301.61 722.375L1303.43 708.581Z" fill="white"/>
<path d="M1360.51 676.686L1362.21 690.496L1372.87 692.818L1362.19 695.043L1360.37 708.837L1358.67 695.027L1348.01 692.706L1358.69 690.48L1360.51 676.686Z" fill="white"/>
<path d="M1354.35 740.962L1356.05 754.772L1366.71 757.093L1356.03 759.318L1354.21 773.113L1352.51 759.303L1341.85 756.981L1352.53 754.756L1354.35 740.962Z" fill="white"/>
<path d="M1305.5 650.717L1307.19 664.527L1317.85 666.849L1307.17 669.074L1305.35 682.868L1303.66 669.058L1293 666.737L1303.68 664.511L1305.5 650.717Z" fill="white"/>
<path d="M1372.98 618.869L1374.67 632.679L1385.33 635.001L1374.65 637.226L1372.83 651.02L1371.14 637.21L1360.48 634.889L1371.16 632.663L1372.98 618.869Z" fill="white"/>
<path d="M1322.61 667.323L1324.31 681.133L1334.97 683.455L1324.29 685.68L1322.47 699.474L1320.77 685.664L1310.11 683.343L1320.79 681.117L1322.61 667.323Z" fill="white"/>
<path d="M1322.61 667.323L1324.31 681.133L1334.97 683.455L1324.29 685.68L1322.47 699.474L1320.77 685.664L1310.11 683.343L1320.79 681.117L1322.61 667.323Z" fill="white"/>
</g>
<g style="mix-blend-mode:lighten" opacity="0.5">
<path d="M582.409 488.863L584.104 502.673L594.764 504.995L584.084 507.22L582.264 521.014L580.569 507.204L569.909 504.883L580.589 502.658L582.409 488.863Z" fill="white"/>
<path d="M639.495 456.969L641.191 470.779L651.851 473.1L641.17 475.326L639.35 489.12L637.655 475.31L626.995 472.988L637.675 470.763L639.495 456.969Z" fill="white"/>
<path d="M633.331 521.244L635.027 535.054L645.687 537.376L635.006 539.601L633.186 553.395L631.491 539.585L620.831 537.264L631.511 535.038L633.331 521.244Z" fill="white"/>
<path d="M584.477 431L586.173 444.81L596.833 447.131L586.152 449.357L584.332 463.151L582.637 449.341L571.977 447.019L582.657 444.794L584.477 431Z" fill="white"/>
<path d="M651.958 399.152L653.653 412.962L664.313 415.283L653.633 417.509L651.813 431.303L650.117 417.493L639.457 415.171L650.138 412.946L651.958 399.152Z" fill="white"/>
<path d="M601.595 447.606L603.29 461.416L613.95 463.737L603.27 465.963L601.45 479.757L599.755 465.947L589.095 463.625L599.775 461.4L601.595 447.606Z" fill="white"/>
<path d="M601.595 447.606L603.29 461.416L613.95 463.737L603.27 465.963L601.45 479.757L599.755 465.947L589.095 463.625L599.775 461.4L601.595 447.606Z" fill="white"/>
</g>
<g style="mix-blend-mode:lighten" opacity="0.5">
<path d="M399.886 382.395L401.582 396.205L412.242 398.526L401.561 400.752L399.742 414.546L398.046 400.736L387.386 398.415L398.067 396.189L399.886 382.395Z" fill="white"/>
<path d="M456.973 350.5L458.668 364.31L469.328 366.632L458.648 368.857L456.828 382.651L455.133 368.841L444.473 366.52L455.153 364.294L456.973 350.5Z" fill="white"/>
<path d="M450.809 414.776L452.504 428.586L463.164 430.907L452.484 433.132L450.664 446.927L448.969 433.117L438.309 430.795L448.989 428.57L450.809 414.776Z" fill="white"/>
<path d="M401.955 324.531L403.65 338.341L414.31 340.663L403.63 342.888L401.81 356.682L400.115 342.872L389.455 340.551L400.135 338.326L401.955 324.531Z" fill="white"/>
<path d="M469.435 292.683L471.131 306.493L481.791 308.815L471.11 311.04L469.29 324.834L467.595 311.024L456.935 308.703L467.615 306.477L469.435 292.683Z" fill="white"/>
<path d="M419.072 341.137L420.768 354.947L431.428 357.269L420.747 359.494L418.928 373.288L417.232 359.478L406.572 357.157L417.253 354.931L419.072 341.137Z" fill="white"/>
<path d="M419.072 341.137L420.768 354.947L431.428 357.269L420.747 359.494L418.928 373.288L417.232 359.478L406.572 357.157L417.253 354.931L419.072 341.137Z" fill="white"/>
</g>
<g style="mix-blend-mode:lighten" opacity="0.5">
<path d="M306.095 558.052L307.79 571.862L318.45 574.183L307.77 576.408L305.95 590.203L304.255 576.393L293.595 574.071L304.275 571.846L306.095 558.052Z" fill="white"/>
<path d="M363.181 526.157L364.877 539.967L375.537 542.288L364.856 544.514L363.037 558.308L361.341 544.498L350.681 542.176L361.362 539.951L363.181 526.157Z" fill="white"/>
<path d="M357.017 590.432L358.713 604.242L369.373 606.564L358.692 608.789L356.872 622.583L355.177 608.773L344.517 606.452L355.197 604.227L357.017 590.432Z" fill="white"/>
<path d="M308.163 500.188L309.859 513.998L320.519 516.319L309.838 518.545L308.018 532.339L306.323 518.529L295.663 516.208L306.343 513.982L308.163 500.188Z" fill="white"/>
<path d="M375.644 468.34L377.339 482.15L387.999 484.471L377.319 486.697L375.499 500.491L373.803 486.681L363.143 484.36L373.824 482.134L375.644 468.34Z" fill="white"/>
<path d="M325.281 516.794L326.976 530.604L337.636 532.925L326.956 535.151L325.136 548.945L323.441 535.135L312.781 532.814L323.461 530.588L325.281 516.794Z" fill="white"/>
<path d="M325.281 516.794L326.976 530.604L337.636 532.925L326.956 535.151L325.136 548.945L323.441 535.135L312.781 532.814L323.461 530.588L325.281 516.794Z" fill="white"/>
</g>
<g style="mix-blend-mode:lighten" opacity="0.5">
<path d="M322.731 638.916L324.426 652.726L335.086 655.047L324.406 657.272L322.586 671.067L320.891 657.257L310.231 654.935L320.911 652.71L322.731 638.916Z" fill="white"/>
<path d="M379.817 607.021L381.513 620.831L392.173 623.152L381.492 625.378L379.673 639.172L377.977 625.362L367.317 623.04L377.998 620.815L379.817 607.021Z" fill="white"/>
<path d="M373.653 671.296L375.349 685.106L386.009 687.428L375.328 689.653L373.509 703.447L371.813 689.637L361.153 687.316L371.834 685.09L373.653 671.296Z" fill="white"/>
<path d="M324.799 581.052L326.495 594.862L337.155 597.183L326.474 599.409L324.655 613.203L322.959 599.393L312.299 597.071L322.98 594.846L324.799 581.052Z" fill="white"/>
<path d="M392.28 549.204L393.975 563.014L404.635 565.335L393.955 567.561L392.135 581.355L390.44 567.545L379.78 565.223L390.46 562.998L392.28 549.204Z" fill="white"/>
<path d="M341.917 597.658L343.612 611.468L354.272 613.789L343.592 616.015L341.772 629.809L340.077 615.999L329.417 613.677L340.097 611.452L341.917 597.658Z" fill="white"/>
<path d="M341.917 597.658L343.612 611.468L354.272 613.789L343.592 616.015L341.772 629.809L340.077 615.999L329.417 613.677L340.097 611.452L341.917 597.658Z" fill="white"/>
</g>
<g style="mix-blend-mode:lighten" opacity="0.5">
<path d="M651.597 669.397L653.293 683.207L663.953 685.528L653.272 687.753L651.453 701.548L649.757 687.738L639.097 685.416L649.778 683.191L651.597 669.397Z" fill="white"/>
<path d="M708.684 637.502L710.379 651.312L721.039 653.633L710.359 655.859L708.539 669.653L706.844 655.843L696.184 653.521L706.864 651.296L708.684 637.502Z" fill="white"/>
<path d="M702.52 701.777L704.215 715.587L714.875 717.909L704.195 720.134L702.375 733.928L700.679 720.118L690.019 717.797L700.7 715.571L702.52 701.777Z" fill="white"/>
<path d="M653.666 611.533L655.361 625.343L666.021 627.664L655.341 629.89L653.521 643.684L651.825 629.874L641.165 627.553L651.846 625.327L653.666 611.533Z" fill="white"/>
<path d="M721.146 579.685L722.841 593.495L733.501 595.816L722.821 598.042L721.001 611.836L719.306 598.026L708.646 595.704L719.326 593.479L721.146 579.685Z" fill="white"/>
<path d="M670.783 628.139L672.479 641.949L683.139 644.27L672.458 646.496L670.639 660.29L668.943 646.48L658.283 644.159L668.964 641.933L670.783 628.139Z" fill="white"/>
<path d="M670.783 628.139L672.479 641.949L683.139 644.27L672.458 646.496L670.639 660.29L668.943 646.48L658.283 644.159L668.964 641.933L670.783 628.139Z" fill="white"/>
</g>
<g style="mix-blend-mode:lighten" opacity="0.5">
<path d="M1193.39 493.684L1195.09 507.494L1205.75 509.815L1195.07 512.041L1193.25 525.835L1191.55 512.025L1180.89 509.704L1191.57 507.478L1193.39 493.684Z" fill="white"/>
<path d="M1250.48 461.789L1252.18 475.599L1262.84 477.921L1252.15 480.146L1250.34 493.94L1248.64 480.13L1237.98 477.809L1248.66 475.583L1250.48 461.789Z" fill="white"/>
<path d="M1244.32 526.065L1246.01 539.875L1256.67 542.196L1245.99 544.422L1244.17 558.216L1242.48 544.406L1231.82 542.084L1242.5 539.859L1244.32 526.065Z" fill="white"/>
<path d="M1195.46 435.82L1197.16 449.63L1207.82 451.952L1197.14 454.177L1195.32 467.971L1193.62 454.161L1182.96 451.84L1193.64 449.615L1195.46 435.82Z" fill="white"/>
<path d="M1262.94 403.972L1264.64 417.782L1275.3 420.104L1264.62 422.329L1262.8 436.123L1261.1 422.313L1250.44 419.992L1261.12 417.767L1262.94 403.972Z" fill="white"/>
<path d="M1212.58 452.426L1214.28 466.236L1224.94 468.558L1214.25 470.783L1212.43 484.577L1210.74 470.767L1200.08 468.446L1210.76 466.221L1212.58 452.426Z" fill="white"/>
<path d="M1212.58 452.426L1214.28 466.236L1224.94 468.558L1214.25 470.783L1212.43 484.577L1210.74 470.767L1200.08 468.446L1210.76 466.221L1212.58 452.426Z" fill="white"/>
</g>
<g style="mix-blend-mode:lighten" opacity="0.5">
<path d="M831.698 203.08L833.393 216.89L844.053 219.212L833.373 221.437L831.553 235.231L829.858 221.421L819.198 219.1L829.878 216.874L831.698 203.08Z" fill="white"/>
<path d="M888.784 171.185L890.479 184.995L901.139 187.317L890.459 189.542L888.639 203.336L886.944 189.526L876.284 187.205L886.964 184.979L888.784 171.185Z" fill="white"/>
<path d="M882.62 235.461L884.315 249.271L894.975 251.592L884.295 253.818L882.475 267.612L880.78 253.802L870.12 251.481L880.8 249.255L882.62 235.461Z" fill="white"/>
<path d="M833.766 145.217L835.461 159.026L846.121 161.348L835.441 163.573L833.621 177.367L831.926 163.558L821.266 161.236L831.946 159.011L833.766 145.217Z" fill="white"/>
<path d="M901.246 113.369L902.942 127.179L913.602 129.5L902.921 131.725L901.101 145.52L899.406 131.71L888.746 129.388L899.426 127.163L901.246 113.369Z" fill="white"/>
<path d="M850.883 161.822L852.579 175.632L863.239 177.954L852.558 180.179L850.739 193.973L849.043 180.163L838.383 177.842L849.064 175.617L850.883 161.822Z" fill="white"/>
<path d="M850.883 161.822L852.579 175.632L863.239 177.954L852.558 180.179L850.739 193.973L849.043 180.163L838.383 177.842L849.064 175.617L850.883 161.822Z" fill="white"/>
</g>
<g style="mix-blend-mode:lighten" opacity="0.5">
<path d="M1420.87 610.712L1422.56 624.522L1433.22 626.844L1422.54 629.069L1420.72 642.863L1419.03 629.053L1408.37 626.732L1419.05 624.506L1420.87 610.712Z" fill="white"/>
<path d="M1422.94 552.849L1424.63 566.659L1435.29 568.98L1424.61 571.206L1422.79 585L1421.1 571.19L1410.44 568.868L1421.12 566.643L1422.94 552.849Z" fill="white"/>
<path d="M1440.06 569.455L1441.75 583.265L1452.41 585.586L1441.73 587.812L1439.91 601.606L1438.22 587.796L1427.56 585.474L1438.24 583.249L1440.06 569.455Z" fill="white"/>
<path d="M1440.06 569.455L1441.75 583.265L1452.41 585.586L1441.73 587.812L1439.91 601.606L1438.22 587.796L1427.56 585.474L1438.24 583.249L1440.06 569.455Z" fill="white"/>
</g>
<g style="mix-blend-mode:lighten" opacity="0.5">
<path d="M342.494 691.828L344.189 705.638L354.849 707.96L344.169 710.185L342.349 723.979L340.654 710.169L329.994 707.848L340.674 705.622L342.494 691.828Z" fill="white"/>
<path d="M399.58 659.933L401.275 673.743L411.935 676.065L401.255 678.29L399.435 692.084L397.74 678.274L387.08 675.953L397.76 673.728L399.58 659.933Z" fill="white"/>
<path d="M393.416 724.209L395.111 738.019L405.771 740.34L395.091 742.566L393.271 756.36L391.575 742.55L380.915 740.229L391.596 738.003L393.416 724.209Z" fill="white"/>
<path d="M344.562 633.965L346.257 647.775L356.917 650.096L346.237 652.321L344.417 666.116L342.721 652.306L332.061 649.984L342.742 647.759L344.562 633.965Z" fill="white"/>
<path d="M412.042 602.117L413.737 615.927L424.397 618.248L413.717 620.473L411.897 634.268L410.202 620.458L399.542 618.136L410.222 615.911L412.042 602.117Z" fill="white"/>
<path d="M361.679 650.571L363.375 664.381L374.035 666.702L363.354 668.927L361.535 682.722L359.839 668.912L349.179 666.59L359.86 664.365L361.679 650.571Z" fill="white"/>
<path d="M361.679 650.571L363.375 664.381L374.035 666.702L363.354 668.927L361.535 682.722L359.839 668.912L349.179 666.59L359.86 664.365L361.679 650.571Z" fill="white"/>
</g>
<g style="mix-blend-mode:lighten" opacity="0.5">
<path d="M159.97 585.36L161.666 599.17L172.326 601.491L161.645 603.716L159.826 617.511L158.13 603.701L147.47 601.379L158.151 599.154L159.97 585.36Z" fill="white"/>
<path d="M217.057 553.465L218.752 567.275L229.412 569.596L218.732 571.822L216.912 585.616L215.217 571.806L204.557 569.484L215.237 567.259L217.057 553.465Z" fill="white"/>
<path d="M210.893 617.74L212.588 631.55L223.248 633.872L212.568 636.097L210.748 649.891L209.052 636.081L198.393 633.76L209.073 631.535L210.893 617.74Z" fill="white"/>
<path d="M162.039 527.496L163.734 541.306L174.394 543.627L163.714 545.853L161.894 559.647L160.198 545.837L149.539 543.516L160.219 541.29L162.039 527.496Z" fill="white"/>
<path d="M229.519 495.648L231.215 509.458L241.874 511.779L231.194 514.005L229.374 527.799L227.679 513.989L217.019 511.668L227.699 509.442L229.519 495.648Z" fill="white"/>
<path d="M179.156 544.102L180.852 557.912L191.512 560.233L180.831 562.459L179.012 576.253L177.316 562.443L166.656 560.122L177.337 557.896L179.156 544.102Z" fill="white"/>
<path d="M179.156 544.102L180.852 557.912L191.512 560.233L180.831 562.459L179.012 576.253L177.316 562.443L166.656 560.122L177.337 557.896L179.156 544.102Z" fill="white"/>
</g>
<g style="mix-blend-mode:lighten" opacity="0.5">
<path d="M926.312 511.126L928.007 524.936L938.667 527.257L927.987 529.483L926.167 543.277L924.472 529.467L913.812 527.146L924.492 524.92L926.312 511.126Z" fill="white"/>
<path d="M983.398 479.231L985.094 493.041L995.754 495.363L985.073 497.588L983.254 511.382L981.558 497.572L970.898 495.251L981.579 493.025L983.398 479.231Z" fill="white"/>
<path d="M977.234 543.507L978.93 557.317L989.59 559.638L978.909 561.864L977.09 575.658L975.394 561.848L964.734 559.526L975.415 557.301L977.234 543.507Z" fill="white"/>
<path d="M928.38 453.262L930.076 467.072L940.736 469.394L930.055 471.619L928.236 485.413L926.54 471.603L915.88 469.282L926.561 467.057L928.38 453.262Z" fill="white"/>
<path d="M995.861 421.414L997.556 435.224L1008.22 437.546L997.536 439.771L995.716 453.565L994.021 439.755L983.361 437.434L994.041 435.208L995.861 421.414Z" fill="white"/>
<path d="M945.498 469.868L947.194 483.678L957.854 486L947.173 488.225L945.353 502.019L943.658 488.209L932.998 485.888L943.678 483.663L945.498 469.868Z" fill="white"/>
<path d="M945.498 469.868L947.194 483.678L957.854 486L947.173 488.225L945.353 502.019L943.658 488.209L932.998 485.888L943.678 483.663L945.498 469.868Z" fill="white"/>
</g>
<g style="mix-blend-mode:lighten" opacity="0.5">
<path d="M335.191 92.0917L336.887 105.902L347.547 108.223L336.866 110.449L335.047 124.243L333.351 110.433L322.691 108.111L333.372 105.886L335.191 92.0917Z" fill="white"/>
<path d="M392.278 60.1969L393.973 74.0069L404.633 76.3284L393.953 78.5538L392.133 92.3479L390.438 78.5379L379.778 76.2165L390.458 73.9911L392.278 60.1969Z" fill="white"/>
<path d="M386.114 124.472L387.809 138.282L398.469 140.604L387.789 142.829L385.969 156.623L384.274 142.813L373.614 140.492L384.294 138.267L386.114 124.472Z" fill="white"/>
<path d="M337.26 34.2281L338.955 48.0381L349.615 50.3595L338.935 52.5849L337.115 66.3791L335.42 52.5691L324.76 50.2477L335.44 48.0223L337.26 34.2281Z" fill="white"/>
<path d="M404.74 2.38004L406.436 16.19L417.096 18.5115L406.415 20.7369L404.596 34.531L402.9 20.721L392.24 18.3996L402.921 16.1742L404.74 2.38004Z" fill="white"/>
<path d="M354.377 50.8341L356.073 64.6441L366.733 66.9655L356.052 69.1909L354.233 82.9851L352.537 69.1751L341.877 66.8537L352.558 64.6283L354.377 50.8341Z" fill="white"/>
<path d="M354.377 50.8341L356.073 64.6441L366.733 66.9655L356.052 69.1909L354.233 82.9851L352.537 69.1751L341.877 66.8537L352.558 64.6283L354.377 50.8341Z" fill="white"/>
</g>
</g>
</svg>
